G04 EAGLE Gerber RS-274X export*
G75*
%MOMM*%
%FSLAX34Y34*%
%LPD*%
%INBottom Solder Mask*%
%IPPOS*%
%AMOC8*
5,1,8,0,0,1.08239X$1,22.5*%
G01*
%ADD10C,1.350000*%
%ADD11C,1.219200*%
%ADD12P,1.319650X8X112.500000*%
%ADD13C,1.219200*%
%ADD14P,1.319650X8X292.500000*%
%ADD15R,1.300000X1.500000*%
%ADD16R,1.500000X1.300000*%
%ADD17C,1.879600*%


D10*
X57244Y331782D03*
X37244Y331782D03*
X57244Y351782D03*
X37244Y351782D03*
X57244Y371782D03*
X37244Y371782D03*
X57244Y391782D03*
X37244Y391782D03*
X57244Y411782D03*
X37244Y411782D03*
X57244Y431782D03*
X37244Y431782D03*
X57244Y451782D03*
X37244Y451782D03*
X57244Y471782D03*
X37244Y471782D03*
X57244Y491782D03*
X37244Y491782D03*
X57244Y511782D03*
X37244Y511782D03*
X57244Y531782D03*
X37244Y531782D03*
X57244Y551782D03*
X37244Y551782D03*
X57244Y571782D03*
X37244Y571782D03*
X57244Y591782D03*
X37244Y591782D03*
X57244Y611782D03*
X37244Y611782D03*
X57244Y631782D03*
X37244Y631782D03*
X57244Y651782D03*
X37244Y651782D03*
X57244Y671782D03*
X37244Y671782D03*
X57244Y691782D03*
X37244Y691782D03*
X57244Y711782D03*
X37244Y711782D03*
X57244Y731782D03*
X37244Y731782D03*
X57244Y751782D03*
X37244Y751782D03*
D11*
X863600Y279146D02*
X863600Y266954D01*
X838200Y266954D02*
X838200Y279146D01*
X812800Y279146D02*
X812800Y266954D01*
X787400Y266954D02*
X787400Y279146D01*
X762000Y279146D02*
X762000Y266954D01*
X736600Y266954D02*
X736600Y279146D01*
X711200Y279146D02*
X711200Y266954D01*
X685800Y266954D02*
X685800Y279146D01*
X660400Y279146D02*
X660400Y266954D01*
X635000Y266954D02*
X635000Y279146D01*
X609600Y279146D02*
X609600Y266954D01*
X584200Y266954D02*
X584200Y279146D01*
X558800Y279146D02*
X558800Y266954D01*
X533400Y266954D02*
X533400Y279146D01*
X508000Y279146D02*
X508000Y266954D01*
X482600Y266954D02*
X482600Y279146D01*
X457200Y279146D02*
X457200Y266954D01*
X431800Y266954D02*
X431800Y279146D01*
X406400Y279146D02*
X406400Y266954D01*
X76200Y266954D02*
X76200Y279146D01*
X76200Y50546D02*
X76200Y38354D01*
X406400Y38354D02*
X406400Y50546D01*
X431800Y50546D02*
X431800Y38354D01*
X457200Y38354D02*
X457200Y50546D01*
X482600Y50546D02*
X482600Y38354D01*
X508000Y38354D02*
X508000Y50546D01*
X533400Y50546D02*
X533400Y38354D01*
X558800Y38354D02*
X558800Y50546D01*
X584200Y50546D02*
X584200Y38354D01*
X609600Y38354D02*
X609600Y50546D01*
X635000Y50546D02*
X635000Y38354D01*
X660400Y38354D02*
X660400Y50546D01*
X685800Y50546D02*
X685800Y38354D01*
X711200Y38354D02*
X711200Y50546D01*
X736600Y50546D02*
X736600Y38354D01*
X762000Y38354D02*
X762000Y50546D01*
X787400Y50546D02*
X787400Y38354D01*
X812800Y38354D02*
X812800Y50546D01*
X838200Y50546D02*
X838200Y38354D01*
X863600Y38354D02*
X863600Y50546D01*
X381000Y266954D02*
X381000Y279146D01*
X355600Y279146D02*
X355600Y266954D01*
X330200Y266954D02*
X330200Y279146D01*
X304800Y279146D02*
X304800Y266954D01*
X279400Y266954D02*
X279400Y279146D01*
X254000Y279146D02*
X254000Y266954D01*
X228600Y266954D02*
X228600Y279146D01*
X203200Y279146D02*
X203200Y266954D01*
X177800Y266954D02*
X177800Y279146D01*
X152400Y279146D02*
X152400Y266954D01*
X127000Y266954D02*
X127000Y279146D01*
X101600Y279146D02*
X101600Y266954D01*
X381000Y50546D02*
X381000Y38354D01*
X355600Y38354D02*
X355600Y50546D01*
X330200Y50546D02*
X330200Y38354D01*
X304800Y38354D02*
X304800Y50546D01*
X279400Y50546D02*
X279400Y38354D01*
X254000Y38354D02*
X254000Y50546D01*
X228600Y50546D02*
X228600Y38354D01*
X203200Y38354D02*
X203200Y50546D01*
X177800Y50546D02*
X177800Y38354D01*
X152400Y38354D02*
X152400Y50546D01*
X127000Y50546D02*
X127000Y38354D01*
X101600Y38354D02*
X101600Y50546D01*
D12*
X109728Y732028D03*
X109728Y757428D03*
D13*
X482664Y544576D03*
D14*
X457264Y544576D03*
X482664Y569976D03*
X457264Y569976D03*
X482664Y595376D03*
X457264Y595376D03*
X482664Y620776D03*
X457264Y620776D03*
X482664Y646176D03*
X457264Y671576D03*
X457264Y646176D03*
X431864Y671576D03*
X431864Y646176D03*
X406464Y671576D03*
X406464Y646176D03*
X381064Y671576D03*
X381064Y646176D03*
X355664Y671576D03*
X355664Y646176D03*
X330264Y671576D03*
X330264Y646176D03*
X304864Y671576D03*
X304864Y646176D03*
X279464Y671576D03*
X279464Y646176D03*
X254064Y671576D03*
X228664Y646176D03*
X254064Y646176D03*
X228664Y620776D03*
X254064Y620776D03*
X228664Y595376D03*
X254064Y595376D03*
X228664Y569976D03*
X254064Y569976D03*
X228664Y544576D03*
X254064Y544576D03*
X228664Y519176D03*
X254064Y519176D03*
X228664Y493776D03*
X254064Y493776D03*
X228664Y468376D03*
X254064Y468376D03*
X228664Y442976D03*
X254064Y417576D03*
X254064Y442976D03*
X279464Y417576D03*
X279464Y442976D03*
X304864Y417576D03*
X304864Y442976D03*
X330264Y417576D03*
X330264Y442976D03*
X355664Y417576D03*
X355664Y442976D03*
X381064Y417576D03*
X381064Y442976D03*
X406464Y417576D03*
X406464Y442976D03*
X431864Y417576D03*
X431864Y442976D03*
X457264Y417576D03*
X482664Y442976D03*
X457264Y442976D03*
X482664Y468376D03*
X457264Y468376D03*
X482664Y493776D03*
X457264Y493776D03*
X482664Y519176D03*
X457264Y519176D03*
D15*
X514706Y249428D03*
X495706Y249428D03*
D16*
X208788Y566776D03*
X208788Y547776D03*
X279400Y553060D03*
X279400Y534060D03*
X209042Y620878D03*
X209042Y601878D03*
X81534Y735736D03*
X81534Y754736D03*
X81534Y710540D03*
X81534Y691540D03*
D17*
X1105662Y338836D03*
X1095942Y315369D03*
D10*
X1264925Y769342D03*
X1283402Y761688D03*
X1257271Y750864D03*
X1275749Y743210D03*
X1249617Y732386D03*
X1268095Y724733D03*
X1241964Y713909D03*
X1260441Y706255D03*
X1234310Y695431D03*
X1252788Y687778D03*
X1226656Y676954D03*
X1245134Y669300D03*
X1219003Y658476D03*
X1237480Y650822D03*
X1211349Y639998D03*
X1229827Y632345D03*
X1203695Y621521D03*
X1222173Y613867D03*
X1196042Y603043D03*
X1214519Y595390D03*
X1188388Y584566D03*
X1206866Y576912D03*
X1180734Y566088D03*
X1199212Y558434D03*
X1173081Y547610D03*
X1191558Y539957D03*
X1165427Y529133D03*
X1183905Y521479D03*
X1157773Y510655D03*
X1176251Y503002D03*
X1150120Y492178D03*
X1168597Y484524D03*
X1142466Y473700D03*
X1160944Y466046D03*
X1134812Y455222D03*
X1153290Y447569D03*
X1127159Y436745D03*
X1145636Y429091D03*
X1119505Y418267D03*
X1137983Y410614D03*
X1111851Y399790D03*
X1130329Y392136D03*
X1104198Y381312D03*
X1122675Y373658D03*
D11*
X914400Y317246D02*
X914400Y305054D01*
X889000Y305054D02*
X889000Y317246D01*
X863600Y317246D02*
X863600Y305054D01*
X838200Y305054D02*
X838200Y317246D01*
X812800Y317246D02*
X812800Y305054D01*
X787400Y305054D02*
X787400Y317246D01*
X762000Y317246D02*
X762000Y305054D01*
X736600Y305054D02*
X736600Y317246D01*
X711200Y317246D02*
X711200Y305054D01*
X685800Y305054D02*
X685800Y317246D01*
X660400Y317246D02*
X660400Y305054D01*
X635000Y305054D02*
X635000Y317246D01*
X609600Y317246D02*
X609600Y305054D01*
X584200Y305054D02*
X584200Y317246D01*
X558800Y317246D02*
X558800Y305054D01*
X533400Y305054D02*
X533400Y317246D01*
X508000Y317246D02*
X508000Y305054D01*
X482600Y305054D02*
X482600Y317246D01*
X457200Y317246D02*
X457200Y305054D01*
X127000Y305054D02*
X127000Y317246D01*
X127000Y88646D02*
X127000Y76454D01*
X457200Y76454D02*
X457200Y88646D01*
X482600Y88646D02*
X482600Y76454D01*
X508000Y76454D02*
X508000Y88646D01*
X533400Y88646D02*
X533400Y76454D01*
X558800Y76454D02*
X558800Y88646D01*
X584200Y88646D02*
X584200Y76454D01*
X609600Y76454D02*
X609600Y88646D01*
X635000Y88646D02*
X635000Y76454D01*
X660400Y76454D02*
X660400Y88646D01*
X685800Y88646D02*
X685800Y76454D01*
X711200Y76454D02*
X711200Y88646D01*
X736600Y88646D02*
X736600Y76454D01*
X762000Y76454D02*
X762000Y88646D01*
X787400Y88646D02*
X787400Y76454D01*
X812800Y76454D02*
X812800Y88646D01*
X838200Y88646D02*
X838200Y76454D01*
X863600Y76454D02*
X863600Y88646D01*
X889000Y88646D02*
X889000Y76454D01*
X914400Y76454D02*
X914400Y88646D01*
X431800Y305054D02*
X431800Y317246D01*
X406400Y317246D02*
X406400Y305054D01*
X381000Y305054D02*
X381000Y317246D01*
X355600Y317246D02*
X355600Y305054D01*
X330200Y305054D02*
X330200Y317246D01*
X304800Y317246D02*
X304800Y305054D01*
X279400Y305054D02*
X279400Y317246D01*
X254000Y317246D02*
X254000Y305054D01*
X228600Y305054D02*
X228600Y317246D01*
X203200Y317246D02*
X203200Y305054D01*
X177800Y305054D02*
X177800Y317246D01*
X152400Y317246D02*
X152400Y305054D01*
X431800Y88646D02*
X431800Y76454D01*
X406400Y76454D02*
X406400Y88646D01*
X381000Y88646D02*
X381000Y76454D01*
X355600Y76454D02*
X355600Y88646D01*
X330200Y88646D02*
X330200Y76454D01*
X304800Y76454D02*
X304800Y88646D01*
X279400Y88646D02*
X279400Y76454D01*
X254000Y76454D02*
X254000Y88646D01*
X228600Y88646D02*
X228600Y76454D01*
X203200Y76454D02*
X203200Y88646D01*
X177800Y88646D02*
X177800Y76454D01*
X152400Y76454D02*
X152400Y88646D01*
D17*
X584200Y477012D03*
X609600Y477012D03*
X635000Y477012D03*
X660400Y477012D03*
X685800Y477012D03*
X711200Y477012D03*
D16*
X646158Y552002D03*
X646158Y571002D03*
X671812Y552256D03*
X671812Y571256D03*
X696958Y552256D03*
X696958Y571256D03*
X722358Y552510D03*
X722358Y571510D03*
X747504Y552510D03*
X747504Y571510D03*
D15*
G36*
X878961Y596197D02*
X888153Y605389D01*
X898759Y594783D01*
X889567Y585591D01*
X878961Y596197D01*
G37*
G36*
X865526Y582761D02*
X874718Y591953D01*
X885324Y581347D01*
X876132Y572155D01*
X865526Y582761D01*
G37*
G36*
X910470Y556709D02*
X901278Y547517D01*
X890672Y558123D01*
X899864Y567315D01*
X910470Y556709D01*
G37*
G36*
X923905Y570145D02*
X914713Y560953D01*
X904107Y571559D01*
X913299Y580751D01*
X923905Y570145D01*
G37*
G36*
X973778Y554095D02*
X964586Y563287D01*
X975192Y573893D01*
X984384Y564701D01*
X973778Y554095D01*
G37*
G36*
X987213Y540659D02*
X978021Y549851D01*
X988627Y560457D01*
X997819Y551265D01*
X987213Y540659D01*
G37*
G36*
X907230Y496183D02*
X898038Y505375D01*
X908644Y515981D01*
X917836Y506789D01*
X907230Y496183D01*
G37*
G36*
X920665Y482747D02*
X911473Y491939D01*
X922079Y502545D01*
X931271Y493353D01*
X920665Y482747D01*
G37*
G36*
X896816Y474593D02*
X887624Y483785D01*
X898230Y494391D01*
X907422Y485199D01*
X896816Y474593D01*
G37*
G36*
X910251Y461157D02*
X901059Y470349D01*
X911665Y480955D01*
X920857Y471763D01*
X910251Y461157D01*
G37*
G36*
X846016Y473831D02*
X836824Y483023D01*
X847430Y493629D01*
X856622Y484437D01*
X846016Y473831D01*
G37*
G36*
X859451Y460395D02*
X850259Y469587D01*
X860865Y480193D01*
X870057Y471001D01*
X859451Y460395D01*
G37*
G36*
X818001Y537523D02*
X827193Y546715D01*
X837799Y536109D01*
X828607Y526917D01*
X818001Y537523D01*
G37*
G36*
X804566Y524087D02*
X813758Y533279D01*
X824364Y522673D01*
X815172Y513481D01*
X804566Y524087D01*
G37*
G36*
X810889Y599245D02*
X820081Y608437D01*
X830687Y597831D01*
X821495Y588639D01*
X810889Y599245D01*
G37*
G36*
X797454Y585809D02*
X806646Y595001D01*
X817252Y584395D01*
X808060Y575203D01*
X797454Y585809D01*
G37*
D17*
X38608Y69088D03*
X38608Y94488D03*
X38608Y119888D03*
X38608Y145288D03*
X38608Y170688D03*
X38608Y196088D03*
X38608Y221488D03*
X38608Y246888D03*
X599186Y790702D03*
X599186Y816102D03*
X624586Y790702D03*
X624586Y816102D03*
X649986Y790702D03*
X649986Y816102D03*
X675386Y790702D03*
X675386Y816102D03*
X700786Y790702D03*
X700786Y816102D03*
X726186Y790702D03*
X726186Y816102D03*
X751586Y790702D03*
X751586Y816102D03*
X776986Y790702D03*
X776986Y816102D03*
X802386Y790702D03*
X802386Y816102D03*
X827786Y790702D03*
X827786Y816102D03*
M02*
