G04 EAGLE Gerber RS-274X export*
G75*
%MOMM*%
%FSLAX34Y34*%
%LPD*%
%INBottom Copper*%
%IPPOS*%
%AMOC8*
5,1,8,0,0,1.08239X$1,22.5*%
G01*
%ADD10C,1.350000*%
%ADD11C,1.219200*%
%ADD12P,1.319650X8X112.500000*%
%ADD13C,1.219200*%
%ADD14P,1.319650X8X292.500000*%
%ADD15R,1.300000X1.500000*%
%ADD16R,1.500000X1.300000*%
%ADD17C,1.879600*%
%ADD18C,0.304800*%
%ADD19C,0.654800*%
%ADD20C,0.203200*%
%ADD21C,0.177800*%
%ADD22C,0.609600*%


D10*
X57244Y331782D03*
X37244Y331782D03*
X57244Y351782D03*
X37244Y351782D03*
X57244Y371782D03*
X37244Y371782D03*
X57244Y391782D03*
X37244Y391782D03*
X57244Y411782D03*
X37244Y411782D03*
X57244Y431782D03*
X37244Y431782D03*
X57244Y451782D03*
X37244Y451782D03*
X57244Y471782D03*
X37244Y471782D03*
X57244Y491782D03*
X37244Y491782D03*
X57244Y511782D03*
X37244Y511782D03*
X57244Y531782D03*
X37244Y531782D03*
X57244Y551782D03*
X37244Y551782D03*
X57244Y571782D03*
X37244Y571782D03*
X57244Y591782D03*
X37244Y591782D03*
X57244Y611782D03*
X37244Y611782D03*
X57244Y631782D03*
X37244Y631782D03*
X57244Y651782D03*
X37244Y651782D03*
X57244Y671782D03*
X37244Y671782D03*
X57244Y691782D03*
X37244Y691782D03*
X57244Y711782D03*
X37244Y711782D03*
X57244Y731782D03*
X37244Y731782D03*
X57244Y751782D03*
X37244Y751782D03*
D11*
X863600Y279146D02*
X863600Y266954D01*
X838200Y266954D02*
X838200Y279146D01*
X812800Y279146D02*
X812800Y266954D01*
X787400Y266954D02*
X787400Y279146D01*
X762000Y279146D02*
X762000Y266954D01*
X736600Y266954D02*
X736600Y279146D01*
X711200Y279146D02*
X711200Y266954D01*
X685800Y266954D02*
X685800Y279146D01*
X660400Y279146D02*
X660400Y266954D01*
X635000Y266954D02*
X635000Y279146D01*
X609600Y279146D02*
X609600Y266954D01*
X584200Y266954D02*
X584200Y279146D01*
X558800Y279146D02*
X558800Y266954D01*
X533400Y266954D02*
X533400Y279146D01*
X508000Y279146D02*
X508000Y266954D01*
X482600Y266954D02*
X482600Y279146D01*
X457200Y279146D02*
X457200Y266954D01*
X431800Y266954D02*
X431800Y279146D01*
X406400Y279146D02*
X406400Y266954D01*
X76200Y266954D02*
X76200Y279146D01*
X76200Y50546D02*
X76200Y38354D01*
X406400Y38354D02*
X406400Y50546D01*
X431800Y50546D02*
X431800Y38354D01*
X457200Y38354D02*
X457200Y50546D01*
X482600Y50546D02*
X482600Y38354D01*
X508000Y38354D02*
X508000Y50546D01*
X533400Y50546D02*
X533400Y38354D01*
X558800Y38354D02*
X558800Y50546D01*
X584200Y50546D02*
X584200Y38354D01*
X609600Y38354D02*
X609600Y50546D01*
X635000Y50546D02*
X635000Y38354D01*
X660400Y38354D02*
X660400Y50546D01*
X685800Y50546D02*
X685800Y38354D01*
X711200Y38354D02*
X711200Y50546D01*
X736600Y50546D02*
X736600Y38354D01*
X762000Y38354D02*
X762000Y50546D01*
X787400Y50546D02*
X787400Y38354D01*
X812800Y38354D02*
X812800Y50546D01*
X838200Y50546D02*
X838200Y38354D01*
X863600Y38354D02*
X863600Y50546D01*
X381000Y266954D02*
X381000Y279146D01*
X355600Y279146D02*
X355600Y266954D01*
X330200Y266954D02*
X330200Y279146D01*
X304800Y279146D02*
X304800Y266954D01*
X279400Y266954D02*
X279400Y279146D01*
X254000Y279146D02*
X254000Y266954D01*
X228600Y266954D02*
X228600Y279146D01*
X203200Y279146D02*
X203200Y266954D01*
X177800Y266954D02*
X177800Y279146D01*
X152400Y279146D02*
X152400Y266954D01*
X127000Y266954D02*
X127000Y279146D01*
X101600Y279146D02*
X101600Y266954D01*
X381000Y50546D02*
X381000Y38354D01*
X355600Y38354D02*
X355600Y50546D01*
X330200Y50546D02*
X330200Y38354D01*
X304800Y38354D02*
X304800Y50546D01*
X279400Y50546D02*
X279400Y38354D01*
X254000Y38354D02*
X254000Y50546D01*
X228600Y50546D02*
X228600Y38354D01*
X203200Y38354D02*
X203200Y50546D01*
X177800Y50546D02*
X177800Y38354D01*
X152400Y38354D02*
X152400Y50546D01*
X127000Y50546D02*
X127000Y38354D01*
X101600Y38354D02*
X101600Y50546D01*
D12*
X109728Y732028D03*
X109728Y757428D03*
D13*
X482664Y544576D03*
D14*
X457264Y544576D03*
X482664Y569976D03*
X457264Y569976D03*
X482664Y595376D03*
X457264Y595376D03*
X482664Y620776D03*
X457264Y620776D03*
X482664Y646176D03*
X457264Y671576D03*
X457264Y646176D03*
X431864Y671576D03*
X431864Y646176D03*
X406464Y671576D03*
X406464Y646176D03*
X381064Y671576D03*
X381064Y646176D03*
X355664Y671576D03*
X355664Y646176D03*
X330264Y671576D03*
X330264Y646176D03*
X304864Y671576D03*
X304864Y646176D03*
X279464Y671576D03*
X279464Y646176D03*
X254064Y671576D03*
X228664Y646176D03*
X254064Y646176D03*
X228664Y620776D03*
X254064Y620776D03*
X228664Y595376D03*
X254064Y595376D03*
X228664Y569976D03*
X254064Y569976D03*
X228664Y544576D03*
X254064Y544576D03*
X228664Y519176D03*
X254064Y519176D03*
X228664Y493776D03*
X254064Y493776D03*
X228664Y468376D03*
X254064Y468376D03*
X228664Y442976D03*
X254064Y417576D03*
X254064Y442976D03*
X279464Y417576D03*
X279464Y442976D03*
X304864Y417576D03*
X304864Y442976D03*
X330264Y417576D03*
X330264Y442976D03*
X355664Y417576D03*
X355664Y442976D03*
X381064Y417576D03*
X381064Y442976D03*
X406464Y417576D03*
X406464Y442976D03*
X431864Y417576D03*
X431864Y442976D03*
X457264Y417576D03*
X482664Y442976D03*
X457264Y442976D03*
X482664Y468376D03*
X457264Y468376D03*
X482664Y493776D03*
X457264Y493776D03*
X482664Y519176D03*
X457264Y519176D03*
D15*
X514706Y249428D03*
X495706Y249428D03*
D16*
X208788Y566776D03*
X208788Y547776D03*
X279400Y553060D03*
X279400Y534060D03*
X209042Y620878D03*
X209042Y601878D03*
X81534Y735736D03*
X81534Y754736D03*
X81534Y710540D03*
X81534Y691540D03*
D17*
X1105662Y338836D03*
X1095942Y315369D03*
D10*
X1264925Y769342D03*
X1283402Y761688D03*
X1257271Y750864D03*
X1275749Y743210D03*
X1249617Y732386D03*
X1268095Y724733D03*
X1241964Y713909D03*
X1260441Y706255D03*
X1234310Y695431D03*
X1252788Y687778D03*
X1226656Y676954D03*
X1245134Y669300D03*
X1219003Y658476D03*
X1237480Y650822D03*
X1211349Y639998D03*
X1229827Y632345D03*
X1203695Y621521D03*
X1222173Y613867D03*
X1196042Y603043D03*
X1214519Y595390D03*
X1188388Y584566D03*
X1206866Y576912D03*
X1180734Y566088D03*
X1199212Y558434D03*
X1173081Y547610D03*
X1191558Y539957D03*
X1165427Y529133D03*
X1183905Y521479D03*
X1157773Y510655D03*
X1176251Y503002D03*
X1150120Y492178D03*
X1168597Y484524D03*
X1142466Y473700D03*
X1160944Y466046D03*
X1134812Y455222D03*
X1153290Y447569D03*
X1127159Y436745D03*
X1145636Y429091D03*
X1119505Y418267D03*
X1137983Y410614D03*
X1111851Y399790D03*
X1130329Y392136D03*
X1104198Y381312D03*
X1122675Y373658D03*
D11*
X914400Y317246D02*
X914400Y305054D01*
X889000Y305054D02*
X889000Y317246D01*
X863600Y317246D02*
X863600Y305054D01*
X838200Y305054D02*
X838200Y317246D01*
X812800Y317246D02*
X812800Y305054D01*
X787400Y305054D02*
X787400Y317246D01*
X762000Y317246D02*
X762000Y305054D01*
X736600Y305054D02*
X736600Y317246D01*
X711200Y317246D02*
X711200Y305054D01*
X685800Y305054D02*
X685800Y317246D01*
X660400Y317246D02*
X660400Y305054D01*
X635000Y305054D02*
X635000Y317246D01*
X609600Y317246D02*
X609600Y305054D01*
X584200Y305054D02*
X584200Y317246D01*
X558800Y317246D02*
X558800Y305054D01*
X533400Y305054D02*
X533400Y317246D01*
X508000Y317246D02*
X508000Y305054D01*
X482600Y305054D02*
X482600Y317246D01*
X457200Y317246D02*
X457200Y305054D01*
X127000Y305054D02*
X127000Y317246D01*
X127000Y88646D02*
X127000Y76454D01*
X457200Y76454D02*
X457200Y88646D01*
X482600Y88646D02*
X482600Y76454D01*
X508000Y76454D02*
X508000Y88646D01*
X533400Y88646D02*
X533400Y76454D01*
X558800Y76454D02*
X558800Y88646D01*
X584200Y88646D02*
X584200Y76454D01*
X609600Y76454D02*
X609600Y88646D01*
X635000Y88646D02*
X635000Y76454D01*
X660400Y76454D02*
X660400Y88646D01*
X685800Y88646D02*
X685800Y76454D01*
X711200Y76454D02*
X711200Y88646D01*
X736600Y88646D02*
X736600Y76454D01*
X762000Y76454D02*
X762000Y88646D01*
X787400Y88646D02*
X787400Y76454D01*
X812800Y76454D02*
X812800Y88646D01*
X838200Y88646D02*
X838200Y76454D01*
X863600Y76454D02*
X863600Y88646D01*
X889000Y88646D02*
X889000Y76454D01*
X914400Y76454D02*
X914400Y88646D01*
X431800Y305054D02*
X431800Y317246D01*
X406400Y317246D02*
X406400Y305054D01*
X381000Y305054D02*
X381000Y317246D01*
X355600Y317246D02*
X355600Y305054D01*
X330200Y305054D02*
X330200Y317246D01*
X304800Y317246D02*
X304800Y305054D01*
X279400Y305054D02*
X279400Y317246D01*
X254000Y317246D02*
X254000Y305054D01*
X228600Y305054D02*
X228600Y317246D01*
X203200Y317246D02*
X203200Y305054D01*
X177800Y305054D02*
X177800Y317246D01*
X152400Y317246D02*
X152400Y305054D01*
X431800Y88646D02*
X431800Y76454D01*
X406400Y76454D02*
X406400Y88646D01*
X381000Y88646D02*
X381000Y76454D01*
X355600Y76454D02*
X355600Y88646D01*
X330200Y88646D02*
X330200Y76454D01*
X304800Y76454D02*
X304800Y88646D01*
X279400Y88646D02*
X279400Y76454D01*
X254000Y76454D02*
X254000Y88646D01*
X228600Y88646D02*
X228600Y76454D01*
X203200Y76454D02*
X203200Y88646D01*
X177800Y88646D02*
X177800Y76454D01*
X152400Y76454D02*
X152400Y88646D01*
D17*
X584200Y477012D03*
X609600Y477012D03*
X635000Y477012D03*
X660400Y477012D03*
X685800Y477012D03*
X711200Y477012D03*
D16*
X646158Y552002D03*
X646158Y571002D03*
X671812Y552256D03*
X671812Y571256D03*
X696958Y552256D03*
X696958Y571256D03*
X722358Y552510D03*
X722358Y571510D03*
X747504Y552510D03*
X747504Y571510D03*
D15*
G36*
X878961Y596197D02*
X888153Y605389D01*
X898759Y594783D01*
X889567Y585591D01*
X878961Y596197D01*
G37*
G36*
X865526Y582761D02*
X874718Y591953D01*
X885324Y581347D01*
X876132Y572155D01*
X865526Y582761D01*
G37*
G36*
X910470Y556709D02*
X901278Y547517D01*
X890672Y558123D01*
X899864Y567315D01*
X910470Y556709D01*
G37*
G36*
X923905Y570145D02*
X914713Y560953D01*
X904107Y571559D01*
X913299Y580751D01*
X923905Y570145D01*
G37*
G36*
X973778Y554095D02*
X964586Y563287D01*
X975192Y573893D01*
X984384Y564701D01*
X973778Y554095D01*
G37*
G36*
X987213Y540659D02*
X978021Y549851D01*
X988627Y560457D01*
X997819Y551265D01*
X987213Y540659D01*
G37*
G36*
X907230Y496183D02*
X898038Y505375D01*
X908644Y515981D01*
X917836Y506789D01*
X907230Y496183D01*
G37*
G36*
X920665Y482747D02*
X911473Y491939D01*
X922079Y502545D01*
X931271Y493353D01*
X920665Y482747D01*
G37*
G36*
X896816Y474593D02*
X887624Y483785D01*
X898230Y494391D01*
X907422Y485199D01*
X896816Y474593D01*
G37*
G36*
X910251Y461157D02*
X901059Y470349D01*
X911665Y480955D01*
X920857Y471763D01*
X910251Y461157D01*
G37*
G36*
X846016Y473831D02*
X836824Y483023D01*
X847430Y493629D01*
X856622Y484437D01*
X846016Y473831D01*
G37*
G36*
X859451Y460395D02*
X850259Y469587D01*
X860865Y480193D01*
X870057Y471001D01*
X859451Y460395D01*
G37*
G36*
X818001Y537523D02*
X827193Y546715D01*
X837799Y536109D01*
X828607Y526917D01*
X818001Y537523D01*
G37*
G36*
X804566Y524087D02*
X813758Y533279D01*
X824364Y522673D01*
X815172Y513481D01*
X804566Y524087D01*
G37*
G36*
X810889Y599245D02*
X820081Y608437D01*
X830687Y597831D01*
X821495Y588639D01*
X810889Y599245D01*
G37*
G36*
X797454Y585809D02*
X806646Y595001D01*
X817252Y584395D01*
X808060Y575203D01*
X797454Y585809D01*
G37*
D17*
X38608Y69088D03*
X38608Y94488D03*
X38608Y119888D03*
X38608Y145288D03*
X38608Y170688D03*
X38608Y196088D03*
X38608Y221488D03*
X38608Y246888D03*
X599186Y790702D03*
X599186Y816102D03*
X624586Y790702D03*
X624586Y816102D03*
X649986Y790702D03*
X649986Y816102D03*
X675386Y790702D03*
X675386Y816102D03*
X700786Y790702D03*
X700786Y816102D03*
X726186Y790702D03*
X726186Y816102D03*
X751586Y790702D03*
X751586Y816102D03*
X776986Y790702D03*
X776986Y816102D03*
X802386Y790702D03*
X802386Y816102D03*
X827786Y790702D03*
X827786Y816102D03*
D18*
X482854Y262280D02*
X495706Y249428D01*
X482854Y262280D02*
X482854Y272796D01*
X482600Y273050D01*
D19*
X498856Y235712D03*
D18*
X495706Y238862D01*
X495706Y249428D01*
D19*
X634220Y603666D03*
X759442Y603920D03*
X830326Y593852D03*
X820674Y543560D03*
X838454Y486918D03*
X910082Y419100D03*
X926084Y478028D03*
X935990Y497586D03*
X966978Y572516D03*
X889254Y606552D03*
D18*
X888860Y606158D02*
X888860Y595490D01*
X888860Y606158D02*
X889254Y606552D01*
X966978Y571500D02*
X974485Y563994D01*
X966978Y571500D02*
X966978Y572516D01*
D19*
X901446Y513080D03*
D18*
X901446Y512572D02*
X907937Y506082D01*
X901446Y512572D02*
X901446Y513080D01*
D19*
X891032Y491236D03*
D18*
X891032Y490982D02*
X897523Y484492D01*
X891032Y490982D02*
X891032Y491236D01*
X902857Y489826D02*
X902857Y501002D01*
X902857Y489826D02*
X897523Y484492D01*
X902857Y501002D02*
X907937Y506082D01*
X841643Y483730D02*
X838454Y486918D01*
X841643Y483730D02*
X846723Y483730D01*
X830326Y593852D02*
X825473Y593852D01*
X820788Y598538D01*
X820674Y543560D02*
X827419Y536816D01*
X827900Y536816D01*
D19*
X907796Y549656D03*
D18*
X907796Y550191D01*
X900571Y557416D01*
D19*
X540004Y525780D03*
D18*
X228664Y544576D02*
X211988Y544576D01*
X208788Y547776D01*
D20*
X381000Y324187D02*
X381000Y311150D01*
X288608Y416579D02*
X288608Y463487D01*
X288608Y416579D02*
X381000Y324187D01*
D21*
X228664Y492813D02*
X228664Y493776D01*
X228664Y492813D02*
X244338Y477139D01*
X274955Y477139D02*
X288608Y463487D01*
X274955Y477139D02*
X244338Y477139D01*
X416941Y287909D02*
X431800Y273050D01*
X416941Y287909D02*
X110769Y287909D01*
D19*
X566420Y329784D03*
D20*
X482982Y311150D02*
X482600Y311150D01*
X565821Y329184D02*
X566420Y329784D01*
X565821Y329184D02*
X501016Y329184D01*
X482982Y311150D01*
X482600Y311150D02*
X482600Y322580D01*
X474345Y330835D01*
X429832Y330835D02*
X346774Y413894D01*
X346774Y442976D01*
X429832Y330835D02*
X474345Y330835D01*
D21*
X346774Y442976D02*
X346774Y466535D01*
X315214Y498094D02*
X275146Y498094D01*
X254064Y519176D01*
X315214Y498094D02*
X346774Y466535D01*
X110769Y287909D02*
X107186Y291492D01*
D19*
X107186Y291492D03*
D20*
X444256Y336423D02*
X587756Y336423D01*
X609600Y314579D01*
X609600Y311150D01*
X444256Y336423D02*
X368046Y412633D01*
X368046Y506984D01*
D21*
X254254Y620776D01*
X254064Y620776D01*
D20*
X685800Y312039D02*
X685800Y311150D01*
X685800Y312039D02*
X653225Y344615D01*
X599913Y344615D01*
X600710Y345412D01*
D19*
X600710Y345412D03*
D20*
X456076Y344615D02*
X389954Y410737D01*
X389954Y504009D02*
X260487Y633476D01*
X241364Y633476D01*
X228664Y646176D01*
X456076Y344615D02*
X599913Y344615D01*
X389954Y410737D02*
X389954Y504009D01*
X812800Y359220D02*
X812800Y311150D01*
X812800Y359220D02*
X789242Y382778D01*
X596900Y382778D01*
X504444Y382778D01*
X466154Y421069D01*
X466154Y421258D01*
X431292Y545148D02*
X330264Y646176D01*
X431292Y456120D02*
X466154Y421258D01*
X431292Y456120D02*
X431292Y545148D01*
D19*
X596900Y382778D03*
X757174Y465300D03*
D20*
X759714Y467840D02*
X813320Y467840D01*
X759714Y467840D02*
X757174Y465300D01*
X813320Y467840D02*
X813562Y468082D01*
D19*
X813562Y468082D03*
D21*
X321501Y667946D02*
X321501Y675206D01*
X330264Y659183D02*
X330264Y646176D01*
X330264Y659183D02*
X321501Y667946D01*
X321501Y675206D02*
X371425Y725130D01*
X481722Y725130D01*
X585521Y828929D01*
X630809Y828929D02*
X643636Y816102D01*
X649986Y816102D01*
X630809Y828929D02*
X585521Y828929D01*
D20*
X583692Y390208D02*
X522604Y390208D01*
X814556Y291084D02*
X822706Y299234D01*
X822706Y355664D01*
X814556Y291084D02*
X805180Y291084D01*
X787400Y273304D01*
X787400Y273050D01*
X822706Y355664D02*
X788162Y390208D01*
X460946Y451866D02*
X446522Y451866D01*
X460946Y451866D02*
X522604Y390208D01*
X330390Y671576D02*
X330264Y671576D01*
X342710Y659256D02*
X342710Y646558D01*
X435102Y554165D01*
X435102Y463286D02*
X446522Y451866D01*
X342710Y659256D02*
X330390Y671576D01*
X435102Y554165D02*
X435102Y463286D01*
D19*
X583692Y390208D03*
D20*
X788162Y390208D01*
D19*
X722122Y506772D03*
D20*
X814675Y506772D02*
X846609Y538707D01*
D19*
X846609Y538707D03*
D20*
X814675Y506772D02*
X722122Y506772D01*
D21*
X379667Y720979D02*
X330264Y671576D01*
X379667Y720979D02*
X482600Y720979D01*
X663194Y803910D02*
X675386Y816102D01*
X565531Y803910D02*
X482600Y720979D01*
X565531Y803910D02*
X663194Y803910D01*
D20*
X784797Y399161D02*
X539051Y399161D01*
X812800Y279517D02*
X812800Y273050D01*
X812800Y279517D02*
X828548Y295265D01*
X828548Y355410D01*
X784797Y399161D01*
X539051Y399161D02*
X482536Y455676D01*
X449370Y455676D01*
X439420Y562420D02*
X355664Y646176D01*
X439420Y465626D02*
X449370Y455676D01*
X439420Y465626D02*
X439420Y562420D01*
D21*
X355664Y646176D02*
X355664Y653795D01*
X346901Y662558D01*
X346901Y675206D01*
X389118Y717423D01*
X484073Y717423D01*
X545287Y778637D02*
X682162Y778637D01*
X688086Y784562D01*
X688086Y805688D01*
X698500Y816102D01*
X700786Y816102D01*
X545287Y778637D02*
X484073Y717423D01*
D20*
X838200Y292122D02*
X838200Y273050D01*
X838200Y292122D02*
X847344Y301266D01*
X847344Y343091D01*
X787146Y403289D01*
X540312Y403289D02*
X484114Y459486D01*
X452472Y459486D01*
X540312Y403289D02*
X787146Y403289D01*
X355664Y659004D02*
X355664Y671576D01*
X355664Y659004D02*
X443230Y571437D01*
X443230Y468728D02*
X452472Y459486D01*
X443230Y468728D02*
X443230Y571437D01*
D21*
X355664Y671576D02*
X360871Y676783D01*
X360871Y678863D01*
X395875Y713867D01*
X704260Y775081D02*
X713613Y784435D01*
X713613Y803529D02*
X726186Y816102D01*
X713613Y803529D02*
X713613Y784435D01*
X486029Y713867D02*
X395875Y713867D01*
X547243Y775081D02*
X704260Y775081D01*
X547243Y775081D02*
X486029Y713867D01*
D20*
X548776Y407416D02*
X788670Y407416D01*
X853451Y342635D01*
X853451Y301001D01*
X863600Y290852D02*
X863600Y273050D01*
X863600Y290852D02*
X853451Y301001D01*
X491554Y474852D02*
X485330Y481076D01*
X491554Y464638D02*
X548776Y407416D01*
X491554Y464638D02*
X491554Y474852D01*
X485330Y481076D02*
X454660Y481076D01*
X447040Y488696D01*
X447040Y580200D02*
X381064Y646176D01*
X447040Y580200D02*
X447040Y488696D01*
D21*
X381064Y646176D02*
X364427Y662813D01*
X364427Y677390D01*
X397348Y710311D01*
X487502Y710311D01*
X548716Y771525D01*
X726104Y771525D01*
X738759Y784181D01*
X738759Y803275D02*
X751586Y816102D01*
X738759Y803275D02*
X738759Y784181D01*
D19*
X898779Y285016D03*
D20*
X898779Y369884D01*
X813495Y455168D01*
X561574Y455168D01*
X533464Y640278D02*
X474225Y699516D01*
X409585Y699516D01*
X381645Y671576D01*
X381064Y671576D01*
X533464Y483278D02*
X561574Y455168D01*
X533464Y483278D02*
X533464Y640278D01*
D21*
X492302Y699516D02*
X474225Y699516D01*
X492302Y699516D02*
X553618Y760832D01*
X844169Y782708D02*
X844169Y824097D01*
X844169Y782708D02*
X822294Y760832D01*
X844169Y824097D02*
X835908Y832358D01*
X822294Y760832D02*
X553618Y760832D01*
X776986Y816102D02*
X793242Y832358D01*
X835908Y832358D01*
D19*
X888009Y283693D03*
D20*
X876808Y294894D01*
X876808Y386108D02*
X811812Y451104D01*
X876808Y386108D02*
X876808Y294894D01*
X811812Y451104D02*
X560250Y451104D01*
X529654Y638699D02*
X472647Y695706D01*
X418021Y695706D02*
X397574Y675258D01*
X397574Y655702D01*
X406464Y646812D02*
X406464Y646176D01*
X418021Y695706D02*
X472647Y695706D01*
X406464Y646812D02*
X397574Y655702D01*
X529654Y481700D02*
X560250Y451104D01*
X529654Y481700D02*
X529654Y638699D01*
D21*
X377434Y662813D02*
X372301Y667946D01*
X389827Y662813D02*
X406464Y646176D01*
X389827Y662813D02*
X377434Y662813D01*
X372301Y667946D02*
X372301Y675206D01*
X400294Y703199D01*
X490702Y703199D01*
X551916Y764413D01*
X820592Y764413D01*
X840613Y784435D01*
X840613Y822624D02*
X834435Y828802D01*
X815086Y828802D01*
X802386Y816102D01*
X840613Y822624D02*
X840613Y784435D01*
D19*
X876808Y281432D03*
D20*
X872744Y285496D01*
X872744Y384678D01*
X810382Y447040D01*
X558925Y447040D01*
X525844Y480122D02*
X525844Y637121D01*
X471069Y691896D02*
X426784Y691896D01*
X406464Y671576D01*
X525844Y480122D02*
X558925Y447040D01*
X525844Y637121D02*
X471069Y691896D01*
D21*
X406464Y671576D02*
X406464Y658569D01*
X415227Y649806D02*
X415227Y642546D01*
X410093Y637413D01*
X402834Y637413D01*
X383015Y657231D02*
X375037Y657231D01*
X406464Y658569D02*
X415227Y649806D01*
X402834Y637413D02*
X383015Y657231D01*
X375037Y657231D02*
X367983Y664286D01*
X367983Y675917D02*
X398821Y706755D01*
X367983Y675917D02*
X367983Y664286D01*
X398821Y706755D02*
X488975Y706755D01*
X550189Y767969D01*
X799002Y767969D01*
X815213Y784181D01*
X815213Y803529D02*
X827786Y816102D01*
X815213Y803529D02*
X815213Y784181D01*
D19*
X854456Y354330D03*
D20*
X854428Y354358D02*
X854428Y397501D01*
X854428Y354358D02*
X854456Y354330D01*
X854428Y397501D02*
X808953Y442976D01*
X422974Y654432D02*
X422974Y675258D01*
X469490Y688086D02*
X522034Y635543D01*
X469490Y688086D02*
X435801Y688086D01*
X422974Y675258D01*
X431229Y646176D02*
X431864Y646176D01*
X431229Y646176D02*
X422974Y654432D01*
X557601Y442976D02*
X808953Y442976D01*
X557601Y442976D02*
X522034Y478544D01*
X522034Y635543D01*
D19*
X847598Y360398D03*
D20*
X847598Y398838D01*
X807778Y438658D01*
X518224Y476965D02*
X518224Y633965D01*
X467912Y684276D02*
X444637Y684276D01*
X431937Y671576D02*
X431864Y671576D01*
X431937Y671576D02*
X444637Y684276D01*
X556531Y438658D02*
X807778Y438658D01*
X556531Y438658D02*
X518224Y476965D01*
X518224Y633965D02*
X467912Y684276D01*
D19*
X104140Y498094D03*
X72898Y382270D03*
D21*
X104140Y413512D02*
X104140Y498094D01*
X104140Y413512D02*
X72898Y382270D01*
D19*
X841248Y366522D03*
D20*
X841220Y366550D01*
X841220Y399722D01*
X806856Y434086D01*
X453581Y680466D02*
X448120Y675004D01*
X448120Y655194D01*
X466334Y680466D02*
X514414Y632387D01*
X466334Y680466D02*
X453581Y680466D01*
X457137Y646176D02*
X457264Y646176D01*
X457137Y646176D02*
X448120Y655194D01*
X555715Y434086D02*
X806856Y434086D01*
X555715Y434086D02*
X514414Y475387D01*
X514414Y632387D01*
D19*
X73406Y402082D03*
X97282Y535686D03*
D21*
X97282Y425958D02*
X73406Y402082D01*
X97282Y425958D02*
X97282Y535686D01*
D19*
X834390Y373408D03*
D20*
X834108Y373690D01*
X834108Y401087D01*
X805173Y430022D01*
X554391Y430022D01*
X510604Y630808D02*
X469836Y671576D01*
X457264Y671576D01*
X510604Y473809D02*
X554391Y430022D01*
X510604Y473809D02*
X510604Y630808D01*
D19*
X73152Y421386D03*
X90634Y527768D03*
D21*
X74930Y421386D02*
X73152Y421386D01*
X74930Y421386D02*
X90932Y437388D01*
X90932Y527471D01*
X90634Y527768D01*
D19*
X827278Y380384D03*
D20*
X827278Y402169D01*
X803997Y425450D01*
X553574Y425450D01*
X506794Y622046D02*
X482664Y646176D01*
X506794Y472231D02*
X553574Y425450D01*
X506794Y472231D02*
X506794Y622046D01*
D19*
X72390Y441198D03*
D21*
X72390Y522478D01*
X72380Y522488D01*
D19*
X72380Y522488D03*
X820928Y387604D03*
D20*
X820928Y402772D01*
X802314Y421386D01*
X552250Y421386D01*
X488886Y629666D02*
X465773Y629666D01*
X502984Y615568D02*
X502984Y470653D01*
X502984Y615568D02*
X488886Y629666D01*
X457264Y621156D02*
X457264Y620776D01*
X457264Y621156D02*
X465773Y629666D01*
X502984Y470653D02*
X552250Y421386D01*
D19*
X84582Y462788D03*
D21*
X84582Y510032D01*
D19*
X84582Y510032D03*
X813816Y394462D03*
D20*
X813816Y402105D01*
X798853Y417068D01*
X551180Y417068D01*
X499174Y469075D01*
X499174Y604266D01*
X482664Y620776D01*
D19*
X78486Y481330D03*
D21*
X78486Y516636D02*
X78428Y516694D01*
X78486Y516636D02*
X78486Y481330D01*
D19*
X78428Y516694D03*
X806704Y400530D03*
D20*
X795020Y412214D01*
X550192Y412214D01*
X495364Y467043D01*
X495364Y569848D01*
X469836Y595376D01*
X457264Y595376D01*
X786321Y311150D02*
X787400Y311150D01*
X786321Y311150D02*
X722122Y375349D01*
D19*
X671068Y375349D03*
D20*
X722122Y375349D01*
X422402Y439865D02*
X422402Y528765D01*
X422402Y439865D02*
X486919Y375349D01*
X304991Y646176D02*
X304864Y646176D01*
X486919Y375349D02*
X671068Y375349D01*
X422402Y528765D02*
X304991Y646176D01*
X711200Y311912D02*
X711200Y311150D01*
X711200Y311912D02*
X671576Y351536D01*
X621792Y351536D01*
X621284Y352044D01*
D19*
X621284Y352044D03*
D20*
X454035Y352044D01*
X393764Y412315D01*
X393764Y519304D01*
X256858Y671576D02*
X254064Y671576D01*
X267526Y645542D02*
X393764Y519304D01*
X267526Y660908D02*
X256858Y671576D01*
X267526Y660908D02*
X267526Y645542D01*
X761619Y311150D02*
X762000Y311150D01*
X761619Y311150D02*
X704596Y368173D01*
X656082Y368173D01*
D19*
X656082Y368173D03*
D20*
X468694Y368173D02*
X418592Y418275D01*
X418592Y519875D02*
X295974Y642494D01*
X295974Y655066D02*
X279464Y671576D01*
X295974Y655066D02*
X295974Y642494D01*
X468694Y368173D02*
X656082Y368173D01*
X418592Y418275D02*
X418592Y519875D01*
X736537Y311150D02*
X736600Y311150D01*
X736537Y311150D02*
X688721Y358966D01*
D19*
X637794Y358966D03*
D20*
X688721Y358966D01*
X637794Y358966D02*
X452502Y358966D01*
X397574Y413894D01*
X397574Y528393D01*
X279791Y646176D02*
X279464Y646176D01*
X279791Y646176D02*
X397574Y528393D01*
D19*
X114806Y89246D03*
D20*
X877062Y100383D02*
X1028954Y252275D01*
X1028954Y443992D01*
X1051008Y466046D01*
X1053789Y466046D02*
X1135340Y466046D01*
X1142466Y463095D01*
X1157992Y463095D02*
X1160944Y466046D01*
X1157992Y463095D02*
X1142466Y463095D01*
X877062Y100383D02*
X877062Y72736D01*
X1051008Y466046D02*
X1053789Y466046D01*
X1053944Y465891D01*
D19*
X1053944Y465891D03*
D21*
X877062Y72736D02*
X877062Y72071D01*
X869126Y64135D02*
X114300Y64135D01*
X869126Y64135D02*
X877062Y72071D01*
X114300Y64135D02*
X109601Y68834D01*
X109601Y84041D01*
X114806Y89246D01*
D20*
X872490Y101559D02*
X872490Y72708D01*
X1024890Y253959D02*
X1024890Y445770D01*
X1052820Y473700D01*
X1057910Y473700D02*
X1142466Y473700D01*
X1024890Y253959D02*
X872490Y101559D01*
D19*
X1057910Y473700D03*
D20*
X1052820Y473700D01*
D21*
X872490Y72708D02*
X867474Y67691D01*
D19*
X115570Y75438D03*
D21*
X115623Y75438D02*
X123370Y67691D01*
X115623Y75438D02*
X115570Y75438D01*
X123370Y67691D02*
X867474Y67691D01*
D19*
X105438Y96098D03*
D20*
X121520Y96098D01*
X123212Y97790D01*
X862974Y97790D02*
X1020826Y255642D01*
X1020826Y447548D01*
X1057802Y484524D01*
X1061466Y484524D01*
X1142994Y484524D02*
X1150120Y481572D01*
X1165646Y481572D02*
X1168597Y484524D01*
X1165646Y481572D02*
X1150120Y481572D01*
X862974Y97790D02*
X123212Y97790D01*
D19*
X1061466Y484524D03*
D20*
X1142994Y484524D01*
D19*
X76073Y103124D03*
D20*
X76299Y102898D02*
X194422Y102898D01*
X76299Y102898D02*
X76073Y103124D01*
X194422Y102898D02*
X194450Y102870D01*
X862306Y102870D01*
X1016762Y257326D01*
X1016762Y449580D01*
X1060385Y493203D01*
X1064768Y493203D01*
X1149094Y493203D02*
X1150120Y492178D01*
D19*
X1064768Y493203D03*
D20*
X1149094Y493203D01*
D19*
X127000Y109220D03*
D20*
X862909Y109220D02*
X1012698Y259009D01*
X1152406Y502273D02*
X1157773Y500050D01*
X1173299Y500050D02*
X1176251Y503002D01*
X1173299Y500050D02*
X1157773Y500050D01*
X862909Y109220D02*
X127000Y109220D01*
X1012698Y259009D02*
X1012698Y451358D01*
X1063613Y502273D01*
X1067308Y502273D02*
X1152406Y502273D01*
D19*
X1067308Y502273D03*
D20*
X1063613Y502273D01*
D19*
X152400Y115570D03*
D20*
X861523Y115570D02*
X1008126Y262173D01*
X1066135Y510655D02*
X1071118Y510655D01*
X861523Y115570D02*
X152400Y115570D01*
X1008126Y262173D02*
X1008126Y452646D01*
X1066135Y510655D01*
D19*
X1071118Y510655D03*
D20*
X1157773Y510655D01*
D19*
X177800Y121920D03*
D20*
X178308Y122428D01*
X860645Y122428D02*
X1003554Y265337D01*
X1161286Y520243D02*
X1165427Y518528D01*
X1180953Y518528D02*
X1183905Y521479D01*
X1180953Y518528D02*
X1165427Y518528D01*
X860645Y122428D02*
X178308Y122428D01*
X1003554Y265337D02*
X1003554Y454032D01*
X1069765Y520243D01*
X1075182Y520243D01*
D19*
X1075182Y520243D03*
D20*
X1161286Y520243D01*
D19*
X203200Y129540D03*
D20*
X860022Y129540D02*
X998982Y268500D01*
X1072697Y529133D02*
X1079246Y529133D01*
X860022Y129540D02*
X203200Y129540D01*
X998982Y268500D02*
X998982Y455418D01*
X1072697Y529133D01*
D19*
X1079246Y529133D03*
D20*
X1165427Y529133D01*
D19*
X228600Y135890D03*
D20*
X859906Y135890D02*
X994410Y270394D01*
X1164647Y540498D02*
X1173081Y537005D01*
X1188607Y537005D02*
X1191558Y539957D01*
X1188607Y537005D02*
X1173081Y537005D01*
X859906Y135890D02*
X228600Y135890D01*
X994410Y270394D02*
X994410Y456804D01*
X1078105Y540498D01*
X1082639Y540498D01*
X1164647Y540498D01*
X1082639Y540498D02*
X1082593Y540453D01*
D19*
X1082593Y540453D03*
X254000Y142240D03*
D20*
X858520Y142240D01*
X1081545Y549896D02*
X1085342Y549896D01*
X1086104Y550658D01*
X989838Y273558D02*
X858520Y142240D01*
X989838Y273558D02*
X989838Y458190D01*
X1081545Y549896D01*
D19*
X1086104Y550658D03*
D20*
X1086104Y550404D02*
X1170287Y550404D01*
X1086104Y550404D02*
X1086104Y550658D01*
X1170287Y550404D02*
X1173081Y547610D01*
D19*
X280670Y148590D03*
D20*
X280698Y148618D01*
X857278Y148618D01*
X1172301Y558976D02*
X1180734Y555483D01*
X1196260Y555483D02*
X1199212Y558434D01*
X1196260Y555483D02*
X1180734Y555483D01*
X985266Y276606D02*
X857278Y148618D01*
X985266Y276606D02*
X985266Y459576D01*
X1084667Y558976D01*
X1089660Y558976D01*
X1172301Y558976D01*
X1089660Y558976D02*
X1089578Y559058D01*
D19*
X1089578Y559058D03*
X304800Y154940D03*
D20*
X306606Y155476D02*
X856516Y155476D01*
X306070Y154940D02*
X304800Y154940D01*
X306070Y154940D02*
X306606Y155476D01*
X1088107Y568374D02*
X1092200Y568374D01*
X980694Y279654D02*
X856516Y155476D01*
X980694Y279654D02*
X980694Y460961D01*
X1088107Y568374D01*
D19*
X1092200Y568374D03*
D20*
X1177940Y568882D02*
X1180734Y566088D01*
X1177940Y568882D02*
X1093724Y568882D01*
X1093216Y568374D01*
X1092200Y568374D01*
D19*
X331470Y161798D03*
D20*
X331950Y161318D01*
X854738Y161318D01*
X976122Y282702D01*
X976122Y462347D01*
X1091151Y577376D01*
X1179488Y577376D02*
X1190229Y572927D01*
X1094029Y577376D02*
X1091151Y577376D01*
X1094029Y577376D02*
X1179488Y577376D01*
X1202881Y572927D02*
X1206866Y576912D01*
X1202881Y572927D02*
X1190229Y572927D01*
X1094029Y577376D02*
X1093614Y576962D01*
X1093360Y576962D01*
D19*
X1093360Y576962D03*
X355600Y167640D03*
D20*
X853440Y167640D01*
X1094665Y586848D02*
X1097788Y586848D01*
X971550Y285750D02*
X853440Y167640D01*
X971550Y285750D02*
X971550Y463733D01*
X1094665Y586848D01*
D19*
X1097788Y586848D03*
D20*
X1186105Y586848D02*
X1188388Y584566D01*
X1186105Y586848D02*
X1097788Y586848D01*
D19*
X381000Y173990D03*
D20*
X852170Y173990D01*
X1195734Y592438D02*
X1211568Y592438D01*
X1214519Y595390D01*
X966978Y465373D02*
X966978Y288798D01*
X966978Y465373D02*
X1098274Y596668D01*
X966978Y288798D02*
X852170Y173990D01*
X1185828Y596668D02*
X1195516Y592656D01*
X1195734Y592438D01*
X1101598Y596668D02*
X1098274Y596668D01*
D19*
X1101598Y596668D03*
D20*
X1185828Y596668D01*
D19*
X406400Y180340D03*
D20*
X850900Y180340D01*
X1105154Y605110D02*
X1193975Y605110D01*
X1196042Y603043D01*
X962406Y467013D02*
X962406Y291846D01*
X962406Y467013D02*
X1100503Y605110D01*
X962406Y291846D02*
X850900Y180340D01*
D19*
X1105154Y605110D03*
D20*
X1100503Y605110D01*
D19*
X431800Y186690D03*
D20*
X849630Y186690D01*
X1197673Y613410D02*
X1203695Y610916D01*
X1219221Y610916D02*
X1222173Y613867D01*
X1219221Y610916D02*
X1203695Y610916D01*
X957834Y468398D02*
X957834Y294894D01*
X957834Y468398D02*
X1102846Y613410D01*
X1108202Y613410D01*
X1197673Y613410D01*
X957834Y294894D02*
X849630Y186690D01*
X1108202Y613410D02*
X1108411Y613619D01*
D19*
X1108411Y613619D03*
X457200Y193040D03*
D20*
X848360Y193040D02*
X953262Y297942D01*
X848360Y193040D02*
X457200Y193040D01*
X1203678Y621538D02*
X1203695Y621521D01*
X953262Y470038D02*
X953262Y297942D01*
X953262Y470038D02*
X1104762Y621538D01*
X1112266Y621538D01*
D19*
X1112266Y621538D03*
D20*
X1203678Y621538D01*
D19*
X482600Y199926D03*
D20*
X847626Y199926D01*
X948690Y300990D02*
X948690Y471678D01*
X1109472Y632460D01*
X1203945Y632460D02*
X1211349Y629393D01*
X1117600Y632460D02*
X1109472Y632460D01*
X1117600Y632460D02*
X1203945Y632460D01*
X1226875Y629393D02*
X1229827Y632345D01*
X1226875Y629393D02*
X1211349Y629393D01*
X948690Y300990D02*
X847626Y199926D01*
D19*
X1117600Y632460D03*
D21*
X431800Y44450D02*
X424889Y44450D01*
X408989Y60350D01*
X66694Y60350D02*
X44622Y82423D01*
X31325Y82423D02*
X25527Y88221D01*
X31325Y82423D02*
X44622Y82423D01*
X25527Y132207D02*
X38608Y145288D01*
X66694Y60350D02*
X408989Y60350D01*
X25527Y88221D02*
X25527Y132207D01*
D19*
X508000Y206248D03*
D20*
X944626Y302673D02*
X944626Y474472D01*
X944626Y302673D02*
X848201Y206248D01*
X944626Y474472D02*
X954505Y484351D01*
X954505Y531341D02*
X949933Y535913D01*
X949933Y543025D01*
X954505Y531341D02*
X954505Y484351D01*
D19*
X949933Y543025D03*
D20*
X848201Y206248D02*
X508000Y206248D01*
D19*
X530987Y213805D03*
D20*
X850010Y213805D01*
X940562Y304357D01*
X940562Y475871D01*
X940562Y539750D02*
X940562Y542800D01*
X941069Y543307D01*
D19*
X941069Y543307D03*
D20*
X940562Y539750D02*
X950214Y530098D01*
X950214Y485523D01*
X940562Y475871D01*
D19*
X540545Y221458D03*
D20*
X851915Y221458D01*
X936498Y306040D01*
D19*
X933676Y547624D03*
D20*
X933676Y540512D01*
X936498Y477598D02*
X936498Y306040D01*
X946150Y528038D02*
X933676Y540512D01*
X946150Y528038D02*
X946150Y487250D01*
X936498Y477598D01*
D19*
X551277Y228062D03*
D20*
X852772Y228062D01*
X932434Y307724D01*
D19*
X927100Y564642D03*
D20*
X932434Y479071D02*
X932434Y307724D01*
X927100Y541020D02*
X927100Y564642D01*
X927100Y541020D02*
X942340Y525780D01*
X942340Y488977D01*
X932434Y479071D01*
D21*
X394589Y317627D02*
X394589Y302694D01*
X405183Y292100D01*
X314897Y397320D02*
X314897Y447368D01*
X247183Y481457D02*
X237490Y491150D01*
X237490Y510350D01*
X228664Y519176D01*
X280807Y481457D02*
X314897Y447368D01*
X280807Y481457D02*
X247183Y481457D01*
X314897Y397320D02*
X394589Y317627D01*
X405183Y292100D02*
X634492Y292100D01*
D20*
X635000Y292100D02*
X654050Y311150D01*
X660400Y311150D01*
X635000Y292100D02*
X634492Y292100D01*
D19*
X634492Y292100D03*
D18*
X533146Y267868D02*
X514706Y249428D01*
X533146Y267868D02*
X533146Y273304D01*
X533400Y273050D01*
X78486Y710540D02*
X57244Y731782D01*
X78486Y710540D02*
X81534Y710540D01*
X103022Y732028D01*
X109728Y732028D01*
D22*
X671558Y552002D02*
X671812Y552256D01*
X671558Y552002D02*
X646158Y552002D01*
X671812Y552256D02*
X696958Y552256D01*
X722104Y552256D02*
X722358Y552510D01*
X722104Y552256D02*
X696958Y552256D01*
X722358Y552510D02*
X747504Y552510D01*
D19*
X747014Y541020D03*
D22*
X747014Y552020D01*
X747504Y552510D01*
D19*
X815594Y576326D03*
X809244Y517398D03*
X863092Y462026D03*
X919226Y465836D03*
X931672Y487426D03*
X995934Y541274D03*
X867156Y588772D03*
X921258Y578104D03*
D18*
X875425Y582054D02*
X873874Y582054D01*
X867156Y588772D01*
X987920Y550558D02*
X995934Y542544D01*
X995934Y541274D01*
X931672Y487426D02*
X926592Y487426D01*
X921372Y492646D01*
X919226Y465836D02*
X916178Y465836D01*
X910958Y471056D01*
X863092Y467360D02*
X863092Y462026D01*
X863092Y467360D02*
X860158Y470294D01*
X815594Y576326D02*
X815594Y576861D01*
X807353Y585102D01*
X814465Y522619D02*
X809244Y517398D01*
X814465Y522619D02*
X814465Y523380D01*
X921258Y578104D02*
X921258Y578104D01*
X914006Y570852D01*
X228664Y569976D02*
X211988Y569976D01*
X208788Y566776D01*
D19*
X279908Y522732D03*
D18*
X279400Y534060D02*
X279908Y534490D01*
X279908Y522732D01*
X209042Y567030D02*
X209042Y601878D01*
X209042Y567030D02*
X208788Y566776D01*
D19*
X609346Y536194D03*
D22*
X625154Y552002D02*
X646158Y552002D01*
X625154Y552002D02*
X609346Y536194D01*
D19*
X652018Y240792D03*
D20*
X651510Y240284D01*
X531133Y240284D01*
X520493Y229644D01*
X459260Y229644D02*
X459232Y229616D01*
X459260Y229644D02*
X520493Y229644D01*
X126366Y229616D02*
X92710Y263272D01*
X126366Y229616D02*
X459232Y229616D01*
X92710Y263272D02*
X92710Y309880D01*
X219073Y642939D02*
X219073Y649158D01*
X224981Y655066D01*
X245300Y655066D01*
X254064Y646302D02*
X254064Y646176D01*
X254064Y646302D02*
X245300Y655066D01*
X219774Y522858D02*
X219774Y436944D01*
X92710Y309880D01*
X219774Y522858D02*
X226251Y529336D01*
X231892Y529336D01*
X243840Y618172D02*
X219073Y642939D01*
D19*
X244856Y557022D03*
D20*
X242380Y539823D02*
X231892Y529336D01*
X242380Y553784D02*
X244856Y556260D01*
X244856Y557022D01*
X242380Y553784D02*
X242380Y539823D01*
X243840Y559308D02*
X243840Y618172D01*
X243840Y559308D02*
X244856Y558292D01*
X244856Y557022D01*
X275438Y557022D02*
X279400Y553060D01*
X275438Y557022D02*
X244856Y557022D01*
X634490Y311150D02*
X635000Y311150D01*
X634490Y311150D02*
X619123Y295783D01*
X470408Y304292D02*
X470408Y318516D01*
X470408Y304292D02*
X478917Y295783D01*
X619123Y295783D01*
X470408Y318516D02*
X461899Y327025D01*
X428254Y327025D01*
X341694Y413585D01*
X341694Y458661D01*
D21*
X306578Y493776D01*
X254064Y493776D01*
D20*
X57244Y711782D02*
X57244Y718285D01*
X47700Y727829D01*
X47700Y735735D02*
X53291Y741326D01*
X61197Y741326D01*
X66787Y735736D01*
X81534Y735736D01*
X47700Y735735D02*
X47700Y727829D01*
X81534Y754736D02*
X84226Y757428D01*
X109728Y757428D01*
X81534Y691540D02*
X81534Y681888D01*
X75057Y675411D01*
X75057Y629595D01*
X57244Y611782D01*
X47244Y304749D02*
X47244Y255524D01*
X38608Y246888D01*
X47244Y304749D02*
X146050Y403555D01*
D19*
X146558Y625094D03*
D20*
X146050Y624586D01*
X146050Y403555D01*
X51308Y240538D02*
X38608Y227838D01*
X38608Y221488D01*
X51308Y302768D02*
X153416Y404876D01*
D19*
X153416Y632714D03*
D20*
X51308Y302768D02*
X51308Y240538D01*
X153416Y404876D02*
X153416Y632714D01*
D19*
X160274Y639318D03*
D20*
X160274Y405384D01*
X56134Y301244D01*
X56134Y219456D01*
X38608Y201930D01*
X38608Y196088D01*
X38608Y177292D02*
X38608Y170688D01*
X38608Y177292D02*
X60452Y199136D01*
X60452Y295656D01*
D19*
X78232Y313182D03*
D20*
X77978Y313182D01*
X60452Y295656D01*
D19*
X659130Y234696D03*
D20*
X531188Y234696D01*
X522326Y225834D01*
X460838Y225834D02*
X460810Y225806D01*
X124787Y225806D01*
X88900Y261693D01*
X88900Y311458D01*
X460838Y225834D02*
X522326Y225834D01*
X215646Y438204D02*
X215646Y524881D01*
X215646Y438204D02*
X88900Y311458D01*
X215646Y524881D02*
X223911Y533146D01*
X230060Y533146D01*
X237808Y540894D01*
X237808Y611632D02*
X228664Y620776D01*
X237808Y611632D02*
X237808Y540894D01*
X228562Y620878D02*
X209042Y620878D01*
X228562Y620878D02*
X228664Y620776D01*
X1236638Y677796D02*
X1245134Y669300D01*
X1236638Y677796D02*
X1233961Y684258D01*
X1227499Y686935D01*
X1227364Y687070D01*
X1161570Y687070D02*
X1161542Y687098D01*
D19*
X1161542Y687098D03*
D20*
X1161570Y687070D02*
X1227364Y687070D01*
X1219003Y658476D02*
X1148988Y658476D01*
X1148588Y658876D01*
D19*
X1148588Y658876D03*
D20*
X1228984Y659319D02*
X1237480Y650822D01*
X1228984Y659319D02*
X1226307Y665781D01*
X1219845Y668457D01*
X1219698Y668605D01*
X1153491Y668605D01*
X1152652Y667766D01*
D19*
X1152652Y667766D03*
D20*
X1201664Y649683D02*
X1211349Y639998D01*
X1144319Y649683D02*
X1144270Y649732D01*
X1144319Y649683D02*
X1201664Y649683D01*
D19*
X1144270Y649732D03*
D20*
X1158664Y676458D02*
X1157478Y677644D01*
D19*
X1157478Y677644D03*
D20*
X1226161Y676458D02*
X1226656Y676954D01*
X1226161Y676458D02*
X1158664Y676458D01*
D19*
X884936Y568452D03*
D20*
X810514Y494030D01*
X651764Y494030D01*
X635000Y477266D02*
X635000Y477012D01*
X635000Y477266D02*
X651764Y494030D01*
D19*
X882396Y557022D03*
D20*
X672592Y489204D02*
X660400Y477012D01*
X814578Y489204D02*
X882396Y557022D01*
X814578Y489204D02*
X672592Y489204D01*
D19*
X829818Y452120D03*
D20*
X824738Y452120D01*
X817626Y459232D01*
X601980Y459232D02*
X584200Y477012D01*
X601980Y459232D02*
X817626Y459232D01*
D19*
X784352Y500450D03*
D20*
X633038Y500450D01*
X609600Y477012D01*
D19*
X645142Y579536D03*
D22*
X645142Y572018D02*
X646158Y571002D01*
X645142Y572018D02*
X645142Y579536D01*
D19*
X746996Y579790D03*
D22*
X746996Y572018D02*
X747504Y571510D01*
X746996Y572018D02*
X746996Y579790D01*
D19*
X721850Y580298D03*
D22*
X721850Y572018D01*
X722358Y571510D01*
D19*
X696450Y580298D03*
D22*
X696450Y571764D02*
X696958Y571256D01*
X696450Y571764D02*
X696450Y580298D01*
D19*
X671050Y579790D03*
D22*
X671050Y572018D01*
X671812Y571256D01*
M02*
