G04 EAGLE Gerber RS-274X export*
G75*
%MOMM*%
%FSLAX34Y34*%
%LPD*%
%INBottom Silkscreen*%
%IPPOS*%
%AMOC8*
5,1,8,0,0,1.08239X$1,22.5*%
G01*
%ADD10C,0.101600*%
%ADD11R,0.750100X1.450100*%
%ADD12C,0.076200*%
%ADD13R,1.450100X0.750100*%
%ADD14C,0.152400*%
%ADD15R,1.400000X0.650000*%
%ADD16C,0.203200*%


D10*
X509016Y256028D02*
X501396Y256028D01*
X501396Y242828D02*
X508766Y242828D01*
D11*
X512378Y249440D03*
X497900Y249440D03*
D12*
X505752Y264589D02*
X506981Y265817D01*
X509438Y265817D01*
X510667Y264589D01*
X510667Y259674D01*
X509438Y258445D01*
X506981Y258445D01*
X505752Y259674D01*
X503183Y264589D02*
X501954Y265817D01*
X499497Y265817D01*
X498268Y264589D01*
X498268Y263360D01*
X499497Y262131D01*
X500725Y262131D01*
X499497Y262131D02*
X498268Y260902D01*
X498268Y259674D01*
X499497Y258445D01*
X501954Y258445D01*
X503183Y259674D01*
D10*
X202188Y553466D02*
X202188Y561086D01*
X215388Y560836D02*
X215388Y553466D01*
D13*
X208777Y564448D03*
X208777Y549970D03*
D12*
X198761Y555773D02*
X197533Y557002D01*
X198761Y555773D02*
X198761Y553315D01*
X197533Y552087D01*
X192618Y552087D01*
X191389Y553315D01*
X191389Y555773D01*
X192618Y557002D01*
X196304Y559571D02*
X198761Y562028D01*
X191389Y562028D01*
X191389Y559571D02*
X191389Y564486D01*
D14*
X273050Y547660D02*
X273050Y539460D01*
X285750Y539460D02*
X285750Y547660D01*
D15*
X279385Y536246D03*
X279385Y550978D03*
D12*
X290957Y536339D02*
X298329Y536339D01*
X298329Y540025D01*
X297101Y541254D01*
X294643Y541254D01*
X293414Y540025D01*
X293414Y536339D01*
X293414Y538796D02*
X290957Y541254D01*
X295872Y543823D02*
X298329Y546280D01*
X290957Y546280D01*
X290957Y543823D02*
X290957Y548738D01*
D14*
X202692Y607278D02*
X202692Y615478D01*
X215392Y615478D02*
X215392Y607278D01*
D15*
X209027Y604064D03*
X209027Y618796D03*
D12*
X198507Y606189D02*
X191135Y606189D01*
X198507Y606189D02*
X198507Y609875D01*
X197279Y611104D01*
X194821Y611104D01*
X193592Y609875D01*
X193592Y606189D01*
X193592Y608646D02*
X191135Y611104D01*
X191135Y613673D02*
X191135Y618588D01*
X191135Y613673D02*
X196050Y618588D01*
X197279Y618588D01*
X198507Y617359D01*
X198507Y614902D01*
X197279Y613673D01*
D14*
X87884Y741136D02*
X87884Y749336D01*
X75184Y749336D02*
X75184Y741136D01*
D15*
X81549Y752550D03*
X81549Y737818D03*
D12*
X90297Y739267D02*
X97669Y739267D01*
X97669Y742953D01*
X96441Y744182D01*
X93983Y744182D01*
X92754Y742953D01*
X92754Y739267D01*
X92754Y741724D02*
X90297Y744182D01*
X97669Y746751D02*
X97669Y751666D01*
X97669Y746751D02*
X93983Y746751D01*
X95212Y749209D01*
X95212Y750437D01*
X93983Y751666D01*
X91526Y751666D01*
X90297Y750437D01*
X90297Y747980D01*
X91526Y746751D01*
D14*
X75184Y705140D02*
X75184Y696940D01*
X87884Y696940D02*
X87884Y705140D01*
D15*
X81519Y693726D03*
X81519Y708458D03*
D12*
X90805Y694581D02*
X98177Y694581D01*
X98177Y698267D01*
X96949Y699496D01*
X94491Y699496D01*
X93262Y698267D01*
X93262Y694581D01*
X93262Y697038D02*
X90805Y699496D01*
X96949Y704522D02*
X98177Y706980D01*
X96949Y704522D02*
X94491Y702065D01*
X92034Y702065D01*
X90805Y703294D01*
X90805Y705751D01*
X92034Y706980D01*
X93262Y706980D01*
X94491Y705751D01*
X94491Y702065D01*
D16*
X577850Y464630D02*
X590550Y464630D01*
D14*
X652508Y557402D02*
X652508Y565602D01*
X639808Y565602D02*
X639808Y557402D01*
D15*
X646173Y568816D03*
X646173Y554084D03*
D10*
X640824Y520862D02*
X652518Y520862D01*
X652518Y526709D01*
X650569Y528658D01*
X646671Y528658D01*
X644722Y526709D01*
X644722Y520862D01*
X644722Y524760D02*
X640824Y528658D01*
X650569Y532556D02*
X652518Y534505D01*
X652518Y538403D01*
X650569Y540352D01*
X648620Y540352D01*
X646671Y538403D01*
X646671Y536454D01*
X646671Y538403D02*
X644722Y540352D01*
X642773Y540352D01*
X640824Y538403D01*
X640824Y534505D01*
X642773Y532556D01*
D14*
X678162Y557656D02*
X678162Y565856D01*
X665462Y565856D02*
X665462Y557656D01*
D15*
X671827Y569070D03*
X671827Y554338D03*
D10*
X666732Y521878D02*
X678426Y521878D01*
X678426Y527725D01*
X676477Y529674D01*
X672579Y529674D01*
X670630Y527725D01*
X670630Y521878D01*
X670630Y525776D02*
X666732Y529674D01*
X666732Y539419D02*
X678426Y539419D01*
X672579Y533572D01*
X672579Y541368D01*
D14*
X703308Y557656D02*
X703308Y565856D01*
X690608Y565856D02*
X690608Y557656D01*
D15*
X696973Y569070D03*
X696973Y554338D03*
D10*
X692640Y521878D02*
X704334Y521878D01*
X704334Y527725D01*
X702385Y529674D01*
X698487Y529674D01*
X696538Y527725D01*
X696538Y521878D01*
X696538Y525776D02*
X692640Y529674D01*
X704334Y533572D02*
X704334Y541368D01*
X702385Y541368D01*
X694589Y533572D01*
X692640Y533572D01*
D14*
X728708Y557910D02*
X728708Y566110D01*
X716008Y566110D02*
X716008Y557910D01*
D15*
X722373Y569324D03*
X722373Y554592D03*
D10*
X717786Y522132D02*
X729480Y522132D01*
X729480Y527979D01*
X727531Y529928D01*
X723633Y529928D01*
X721684Y527979D01*
X721684Y522132D01*
X721684Y526030D02*
X717786Y529928D01*
X727531Y533826D02*
X729480Y535775D01*
X729480Y539673D01*
X727531Y541622D01*
X725582Y541622D01*
X723633Y539673D01*
X721684Y541622D01*
X719735Y541622D01*
X717786Y539673D01*
X717786Y535775D01*
X719735Y533826D01*
X721684Y533826D01*
X723633Y535775D01*
X725582Y533826D01*
X727531Y533826D01*
X723633Y535775D02*
X723633Y539673D01*
D14*
X753854Y557910D02*
X753854Y566110D01*
X741154Y566110D02*
X741154Y557910D01*
D15*
X747519Y569324D03*
X747519Y554592D03*
D10*
X742170Y522132D02*
X753864Y522132D01*
X753864Y527979D01*
X751915Y529928D01*
X748017Y529928D01*
X746068Y527979D01*
X746068Y522132D01*
X746068Y526030D02*
X742170Y529928D01*
X744119Y533826D02*
X742170Y535775D01*
X742170Y539673D01*
X744119Y541622D01*
X751915Y541622D01*
X753864Y539673D01*
X753864Y535775D01*
X751915Y533826D01*
X749966Y533826D01*
X748017Y535775D01*
X748017Y541622D01*
X874781Y590745D02*
X880169Y596133D01*
X889326Y586622D02*
X884115Y581411D01*
D11*
G36*
X879427Y596325D02*
X884731Y601629D01*
X894983Y591377D01*
X889679Y586073D01*
X879427Y596325D01*
G37*
G36*
X869189Y586088D02*
X874493Y591392D01*
X884745Y581140D01*
X879441Y575836D01*
X869189Y586088D01*
G37*
D12*
X873784Y600997D02*
X873784Y602735D01*
X875521Y604473D01*
X877259Y604473D01*
X880734Y600997D01*
X880734Y599260D01*
X878997Y597522D01*
X877259Y597522D01*
X871098Y600049D02*
X867623Y596574D01*
X871098Y600049D02*
X873705Y597443D01*
X871098Y596574D01*
X870229Y595705D01*
X870229Y593968D01*
X871967Y592230D01*
X873705Y592230D01*
X875442Y593968D01*
X875442Y595705D01*
D10*
X909261Y556773D02*
X914649Y562161D01*
X905315Y571495D02*
X900104Y566284D01*
D11*
G36*
X910003Y556581D02*
X904699Y551277D01*
X894447Y561529D01*
X899751Y566833D01*
X910003Y556581D01*
G37*
G36*
X920241Y566818D02*
X914937Y561514D01*
X904685Y571766D01*
X909989Y577070D01*
X920241Y566818D01*
G37*
D12*
X914753Y560475D02*
X914753Y558737D01*
X914753Y560475D02*
X916491Y562212D01*
X918229Y562212D01*
X921704Y558737D01*
X921704Y556999D01*
X919966Y555262D01*
X918229Y555262D01*
X911199Y555183D02*
X908592Y554314D01*
X911199Y555183D02*
X914674Y555183D01*
X916412Y553445D01*
X916412Y551707D01*
X914674Y549970D01*
X912937Y549970D01*
X912068Y550838D01*
X912068Y552576D01*
X914674Y555183D01*
D10*
X973841Y555303D02*
X979229Y549915D01*
X988563Y559249D02*
X983352Y564460D01*
D11*
G36*
X973649Y554561D02*
X968345Y559865D01*
X978597Y570117D01*
X983901Y564813D01*
X973649Y554561D01*
G37*
G36*
X983886Y544323D02*
X978582Y549627D01*
X988834Y559879D01*
X994138Y554575D01*
X983886Y544323D01*
G37*
D12*
X977797Y549303D02*
X976059Y549303D01*
X977797Y549303D02*
X979535Y547565D01*
X979535Y545827D01*
X976059Y542352D01*
X974322Y542352D01*
X972584Y544090D01*
X972584Y545827D01*
X975111Y551988D02*
X971636Y555464D01*
X970767Y554595D01*
X970767Y547644D01*
X969898Y546775D01*
D10*
X912681Y492003D02*
X907293Y497391D01*
X916804Y506548D02*
X922015Y501337D01*
D11*
G36*
X907101Y496649D02*
X901797Y501953D01*
X912049Y512205D01*
X917353Y506901D01*
X907101Y496649D01*
G37*
G36*
X917338Y486411D02*
X912034Y491715D01*
X922286Y501967D01*
X927590Y496663D01*
X917338Y486411D01*
G37*
D12*
X927037Y507901D02*
X928775Y507901D01*
X930513Y506163D01*
X930513Y504425D01*
X927037Y500950D01*
X925300Y500950D01*
X923562Y502688D01*
X923562Y504425D01*
X925220Y509717D02*
X925220Y511455D01*
X923483Y513193D01*
X921745Y513193D01*
X920876Y512324D01*
X920876Y510586D01*
X919139Y510586D01*
X918270Y509717D01*
X918270Y507980D01*
X920007Y506242D01*
X921745Y506242D01*
X922614Y507111D01*
X922614Y508849D01*
X924352Y508849D01*
X925220Y509717D01*
X922614Y508849D02*
X920876Y510586D01*
D10*
X896879Y475801D02*
X902267Y470413D01*
X911601Y479747D02*
X906390Y484958D01*
D11*
G36*
X896687Y475059D02*
X891383Y480363D01*
X901635Y490615D01*
X906939Y485311D01*
X896687Y475059D01*
G37*
G36*
X906924Y464821D02*
X901620Y470125D01*
X911872Y480377D01*
X917176Y475073D01*
X906924Y464821D01*
G37*
D12*
X900835Y468531D02*
X899097Y468531D01*
X900835Y468531D02*
X902573Y466793D01*
X902573Y465055D01*
X899097Y461580D01*
X897360Y461580D01*
X895622Y463318D01*
X895622Y465055D01*
X893805Y466872D02*
X892067Y466872D01*
X890330Y468610D01*
X890330Y470347D01*
X893805Y473823D01*
X895543Y473823D01*
X897280Y472085D01*
X897280Y470347D01*
X896412Y469479D01*
X894674Y469479D01*
X892067Y472085D01*
D10*
X851467Y469651D02*
X846079Y475039D01*
X855590Y484196D02*
X860801Y478985D01*
D11*
G36*
X845887Y474297D02*
X840583Y479601D01*
X850835Y489853D01*
X856139Y484549D01*
X845887Y474297D01*
G37*
G36*
X856124Y464059D02*
X850820Y469363D01*
X861072Y479615D01*
X866376Y474311D01*
X856124Y464059D01*
G37*
D12*
X868928Y481887D02*
X870666Y481887D01*
X872403Y480149D01*
X872403Y478411D01*
X868928Y474936D01*
X867190Y474936D01*
X865453Y476674D01*
X865453Y478411D01*
X866242Y482835D02*
X866242Y486310D01*
X861029Y481097D01*
X862767Y479359D02*
X859292Y482835D01*
X858344Y485520D02*
X861819Y488996D01*
X861819Y490733D01*
X860081Y492471D01*
X858344Y492471D01*
X854868Y488996D01*
X854868Y487258D01*
X856606Y485520D01*
X858344Y485520D01*
X858344Y492471D01*
D10*
X813821Y532071D02*
X819209Y537459D01*
X828366Y527948D02*
X823155Y522737D01*
D11*
G36*
X818467Y537651D02*
X823771Y542955D01*
X834023Y532703D01*
X828719Y527399D01*
X818467Y537651D01*
G37*
G36*
X808229Y527414D02*
X813533Y532718D01*
X823785Y522466D01*
X818481Y517162D01*
X808229Y527414D01*
G37*
D12*
X830425Y526957D02*
X830425Y525219D01*
X830425Y526957D02*
X832163Y528695D01*
X833900Y528695D01*
X837376Y525219D01*
X837376Y523482D01*
X835638Y521744D01*
X833900Y521744D01*
X829477Y522534D02*
X826002Y522534D01*
X831215Y517321D01*
X832952Y519058D02*
X829477Y515583D01*
X824185Y517242D02*
X820710Y517242D01*
X825923Y512029D01*
X827660Y513766D02*
X824185Y510291D01*
D10*
X806709Y593793D02*
X812097Y599181D01*
X821254Y589670D02*
X816043Y584459D01*
D11*
G36*
X811355Y599373D02*
X816659Y604677D01*
X826911Y594425D01*
X821607Y589121D01*
X811355Y599373D01*
G37*
G36*
X801117Y589136D02*
X806421Y594440D01*
X816673Y584188D01*
X811369Y578884D01*
X801117Y589136D01*
G37*
D12*
X807744Y607093D02*
X807744Y608831D01*
X809481Y610569D01*
X811219Y610569D01*
X814694Y607093D01*
X814694Y605356D01*
X812957Y603618D01*
X811219Y603618D01*
X806796Y604408D02*
X803320Y604408D01*
X808533Y599195D01*
X810271Y600932D02*
X806796Y597457D01*
X804979Y595640D02*
X801504Y592165D01*
X804979Y595640D02*
X798028Y595640D01*
X797160Y596509D01*
X797160Y598247D01*
X798897Y599984D01*
X800635Y599984D01*
D16*
X605536Y774192D02*
X592836Y774192D01*
M02*
