M48
;GenerationSoftware,Autodesk,EAGLE,9.4.2*%
;CreationDate,2020-11-30T12:04:46Z*%
FMAT,2
ICI,OFF
METRIC,TZ,000.000
T4C0.350
T3C0.813
T2C0.900
T1C1.016
%
G90
M71
T1
X82779Y81610
X82779Y79070
X80239Y81610
X80239Y79070
X77699Y81610
X77699Y79070
X75159Y81610
X75159Y79070
X72619Y81610
X72619Y79070
X70079Y81610
X70079Y79070
X67539Y81610
X67539Y79070
X64999Y81610
X64999Y79070
X62459Y81610
X62459Y79070
X59919Y81610
X59919Y79070
X3861Y24689
X3861Y22149
X3861Y19609
X3861Y17069
X3861Y14529
X3861Y11989
X3861Y9449
X3861Y6909
X71120Y47701
X68580Y47701
X66040Y47701
X63500Y47701
X60960Y47701
X58420Y47701
X110566Y33884
X109594Y31537
T2
X113033Y39214
X111185Y39979
X113798Y41061
X111950Y41827
X114564Y42909
X112716Y43674
X115329Y44757
X113481Y45522
X116094Y46605
X114247Y47370
X116860Y48452
X115012Y49218
X117625Y50300
X115777Y51066
X118390Y52148
X116543Y52913
X119156Y53996
X117308Y54761
X119921Y55843
X118073Y56609
X120687Y57691
X118839Y58457
X121452Y59539
X119604Y60304
X122217Y61387
X120370Y62152
X122983Y63234
X121135Y64000
X123748Y65082
X121900Y65848
X124513Y66930
X122666Y67695
X125279Y68778
X123431Y69543
X126044Y70626
X124196Y71391
X126809Y72473
X124962Y73239
X127575Y74321
X125727Y75086
X128340Y76169
X126492Y76934
X110420Y38131
X112268Y37366
X3724Y75178
X5724Y75178
X3724Y73178
X5724Y73178
X3724Y71178
X5724Y71178
X3724Y69178
X5724Y69178
X3724Y67178
X5724Y67178
X3724Y65178
X5724Y65178
X3724Y63178
X5724Y63178
X3724Y61178
X5724Y61178
X3724Y59178
X5724Y59178
X3724Y57178
X5724Y57178
X3724Y55178
X5724Y55178
X3724Y53178
X5724Y53178
X3724Y51178
X5724Y51178
X3724Y49178
X5724Y49178
X3724Y47178
X5724Y47178
X3724Y45178
X5724Y45178
X3724Y43178
X5724Y43178
X3724Y41178
X5724Y41178
X3724Y39178
X5724Y39178
X3724Y37178
X5724Y37178
X3724Y35178
X5724Y35178
X3724Y33178
X5724Y33178
T3
X38100Y4445
X30486Y44298
X15240Y8255
X17780Y8255
X20320Y8255
X22860Y8255
X25400Y8255
X27940Y8255
X30480Y8255
X33020Y8255
X35560Y8255
X38100Y8255
X40640Y8255
X43180Y8255
X15240Y31115
X17780Y31115
X20320Y31115
X22860Y31115
X25400Y31115
X27940Y31115
X30480Y31115
X33020Y31115
X35560Y31115
X38100Y31115
X40640Y31115
X43180Y31115
X91440Y8255
X88900Y8255
X86360Y8255
X83820Y8255
X81280Y8255
X78740Y8255
X76200Y8255
X73660Y8255
X71120Y8255
X68580Y8255
X66040Y8255
X63500Y8255
X60960Y8255
X58420Y8255
X55880Y8255
X53340Y8255
X50800Y8255
X48260Y8255
X45720Y8255
X12700Y8255
X12700Y31115
X45720Y31115
X48260Y31115
X50800Y31115
X86360Y27305
X83820Y27305
X81280Y27305
X78740Y27305
X76200Y27305
X73660Y27305
X71120Y27305
X68580Y27305
X66040Y27305
X63500Y27305
X60960Y27305
X58420Y27305
X55880Y27305
X53340Y27305
X50800Y27305
X48260Y27305
X45720Y27305
X43180Y27305
X40640Y27305
X7620Y27305
X7620Y4445
X40640Y4445
X43180Y4445
X45720Y4445
X48260Y4445
X50800Y4445
X53340Y4445
X55880Y4445
X58420Y4445
X60960Y4445
X63500Y4445
X66040Y4445
X68580Y4445
X71120Y4445
X73660Y4445
X76200Y4445
X78740Y4445
X81280Y4445
X83820Y4445
X86360Y4445
X38100Y27305
X35560Y27305
X33020Y27305
X30480Y27305
X27940Y27305
X25400Y27305
X22860Y27305
X20320Y27305
X17780Y27305
X15240Y27305
X12700Y27305
X10160Y27305
X53340Y31115
X35560Y4445
X33020Y4445
X30480Y4445
X27940Y4445
X25400Y4445
X22860Y4445
X20320Y4445
X17780Y4445
X15240Y4445
X12700Y4445
X10160Y4445
X10973Y73203
X10973Y75743
X48266Y54458
X45726Y54458
X48266Y56998
X45726Y56998
X48266Y59538
X45726Y59538
X48266Y62078
X45726Y62078
X48266Y64618
X45726Y67158
X45726Y64618
X43186Y67158
X43186Y64618
X40646Y67158
X40646Y64618
X38106Y67158
X38106Y64618
X35566Y67158
X35566Y64618
X33026Y67158
X33026Y64618
X30486Y67158
X30486Y64618
X27946Y67158
X27946Y64618
X25406Y67158
X22866Y64618
X25406Y64618
X22866Y62078
X25406Y62078
X22866Y59538
X25406Y59538
X22866Y56998
X25406Y56998
X22866Y54458
X25406Y54458
X22866Y51918
X25406Y51918
X22866Y49378
X25406Y49378
X22866Y46838
X25406Y46838
X22866Y44298
X25406Y41758
X25406Y44298
X27946Y41758
X27946Y44298
X30486Y41758
X55880Y31115
X33026Y41758
X33026Y44298
X35566Y41758
X35566Y44298
X38106Y41758
X38106Y44298
X40646Y41758
X40646Y44298
X43186Y41758
X43186Y44298
X45726Y41758
X48266Y44298
X45726Y44298
X48266Y46838
X45726Y46838
X48266Y49378
X45726Y49378
X48266Y51918
X45726Y51918
X58420Y31115
X60960Y31115
X63500Y31115
X66040Y31115
X68580Y31115
X71120Y31115
X73660Y31115
X76200Y31115
X78740Y31115
X81280Y31115
X83820Y31115
X86360Y31115
X88900Y31115
X91440Y31115
T4
X20320Y12954
X107518Y52024
X17780Y12192
X107112Y51066
X15240Y11557
X106731Y50227
X12700Y10922
X106477Y49320
X7607Y10312
X106147Y48452
X10544Y9610
X11557Y7544
X105791Y47370
X105394Y46589
X11481Y8925
X63779Y35897
X65608Y36817
X62128Y35204
X67107Y37535
X80670Y40053
X7843Y51669
X7849Y48133
X81382Y39446
X8458Y51003
X8458Y46279
X82093Y38760
X7238Y52249
X7239Y44120
X82728Y38038
X9063Y52777
X7315Y42139
X83439Y37341
X107925Y52913
X22860Y13589
X108259Y54045
X25400Y14224
X108610Y55066
X28067Y14859
X108958Y55906
X30480Y15494
X109220Y56837
X33147Y16180
X109336Y57696
X35560Y16764
X109779Y58685
X38100Y17399
X64514Y57954
X78435Y50045
X110160Y59667
X40640Y18034
X110515Y60511
X43180Y18669
X110841Y61362
X45720Y19304
X111227Y62154
X48260Y19993
X111760Y63246
X50800Y20625
X94993Y54302
X53099Y21380
X94107Y54331
X54054Y22146
X93368Y54762
X55128Y22806
X92710Y56464
X63449Y29210
X74701Y54102
X81559Y57633
X80924Y51740
X86309Y46203
X91923Y46584
X93167Y48743
X99593Y54127
X86716Y58877
X92126Y57810
X27991Y52273
X60935Y53619
X65202Y24079
X24486Y55702
X14656Y62509
X15342Y63271
X16027Y63932
X7823Y31318
X65913Y23470
X116154Y68710
X114859Y65888
X115265Y66777
X114427Y64973
X115748Y67764
X88494Y56845
X88240Y55702
X82982Y45212
X67105Y57979
X69645Y58030
X72185Y58030
X74700Y57979
X9728Y53569
X7341Y40208
X84125Y36652
X7290Y38227
X10414Y49809
X84760Y36040
X85446Y35433
X87681Y28143
X88801Y28369
X89878Y28502
X84661Y53871
X72212Y50677
X58369Y39021
X81356Y46808
X75717Y46530
X59690Y38278
X60071Y34541
X10719Y29149
X56642Y32978
X54000Y52578
X90780Y54966
X89103Y49124
X90145Y51308
X88925Y60655
X96698Y57252
X93599Y49759
X92608Y47803
X91008Y41910
X83845Y48692
X82067Y54356
X83033Y59385
X75944Y60392
X63422Y60367
X49886Y23571
M30